<svg xmlns="http://www.w3.org/2000/svg" xmlns:xlink="http://www.w3.org/1999/xlink" width="25px" height="24px" viewBox="0 0 25 24" version="1.1"><g><path style=" stroke:none;fill-rule:nonzero;fill:rgb(99.215686%,99.607843%,99.607843%);fill-opacity:1;" d="M 4.488281 20.9375 C 4.390625 20.894531 4.320312 20.84375 4.433594 20.746094 C 4.503906 20.691406 4.582031 20.640625 4.65625 20.59375 C 5.371094 20.125 6.039062 19.613281 6.476562 18.859375 C 6.847656 18.234375 6.789062 17.867188 6.324219 17.402344 C 3.75 14.796875 2.621094 11.679688 3.183594 8 C 3.503906 5.921875 4.445312 4.121094 5.816406 2.5625 C 6.640625 1.617188 7.625 0.851562 8.699219 0.214844 C 8.765625 0.175781 8.855469 0.164062 8.867188 0.0664062 C 8.847656 0.0117188 8.808594 0.0273438 8.777344 0.0273438 C 6.945312 0.0273438 5.113281 -0.0117188 3.289062 0.0390625 C 1.539062 0.09375 0.0273438 1.460938 0.0351562 3.425781 C 0.046875 9.15625 0.0351562 14.890625 0.0351562 20.628906 C 0.0351562 22.410156 1.375 23.902344 3.132812 23.96875 C 4.613281 24.027344 6.097656 23.976562 7.585938 23.972656 C 7.695312 23.976562 7.804688 23.984375 7.910156 23.984375 L 15.757812 23.984375 C 17.710938 23.984375 19.667969 23.996094 21.625 23.984375 C 23.4375 23.984375 24.910156 22.5 24.910156 20.667969 L 24.910156 17.421875 C 24.910156 17.34375 24.9375 17.261719 24.890625 17.179688 C 24.792969 17.183594 24.753906 17.265625 24.699219 17.320312 C 23.644531 18.394531 22.402344 19.257812 21.039062 19.867188 C 17.695312 21.355469 14.296875 21.460938 10.84375 20.261719 C 10.546875 20.152344 10.222656 20.140625 9.910156 20.21875 C 9.453125 20.332031 9.003906 20.472656 8.554688 20.609375 C 7.226562 21.027344 5.875 21.214844 4.488281 20.9375 Z M 8.429688 11.675781 C 8.519531 11.554688 8.570312 11.484375 8.625 11.410156 C 9.335938 10.5 10.046875 9.585938 10.757812 8.667969 C 10.964844 8.40625 11.171875 8.136719 11.300781 7.816406 C 11.453125 7.453125 11.292969 7.113281 10.921875 6.980469 C 10.757812 6.933594 10.585938 6.910156 10.410156 6.921875 C 9.445312 6.914062 8.472656 6.914062 7.503906 6.921875 C 7.367188 6.921875 7.234375 6.9375 7.101562 6.96875 C 6.796875 7.046875 6.613281 7.359375 6.691406 7.675781 C 6.742188 7.882812 6.90625 8.046875 7.113281 8.097656 C 7.242188 8.128906 7.378906 8.148438 7.515625 8.140625 C 8.101562 8.148438 8.695312 8.140625 9.28125 8.148438 C 9.347656 8.148438 9.425781 8.101562 9.476562 8.203125 C 9.425781 8.265625 9.378906 8.332031 9.328125 8.394531 C 8.488281 9.472656 7.652344 10.554688 6.808594 11.632812 C 6.601562 11.902344 6.492188 12.199219 6.644531 12.527344 C 6.796875 12.859375 7.109375 12.917969 7.421875 12.941406 C 7.671875 12.957031 7.929688 12.945312 8.183594 12.945312 C 9.0625 12.945312 9.9375 12.949219 10.820312 12.941406 C 11.285156 12.933594 11.535156 12.648438 11.488281 12.207031 C 11.449219 11.863281 11.214844 11.679688 10.78125 11.675781 C 10.015625 11.671875 9.25 11.675781 8.429688 11.675781 Z M 14.730469 8.785156 C 14.050781 8.183594 13.300781 8.148438 12.566406 8.585938 C 11.675781 9.113281 11.351562 9.976562 11.460938 10.976562 C 11.5625 11.910156 11.964844 12.675781 12.933594 12.988281 C 13.535156 13.1875 14.09375 13.117188 14.589844 12.710938 C 14.71875 12.605469 14.757812 12.625 14.851562 12.742188 C 15.027344 12.972656 15.339844 13.0625 15.609375 12.957031 C 15.882812 12.875 16.0625 12.621094 16.0625 12.335938 C 16.066406 11.234375 16.070312 10.136719 16.0625 9.035156 C 16.054688 8.597656 15.648438 8.316406 15.222656 8.40625 C 14.992188 8.453125 14.859375 8.613281 14.730469 8.785156 Z M 18.496094 10.824219 C 18.472656 12.199219 19.597656 13.238281 21.011719 13.09375 C 22.308594 12.960938 23.152344 11.976562 23.109375 10.585938 C 23.0625 9.214844 22.054688 8.273438 20.667969 8.316406 C 19.371094 8.355469 18.453125 9.410156 18.496094 10.824219 Z M 18.015625 9.730469 C 18.015625 8.867188 18.023438 8.007812 18.015625 7.144531 C 18.015625 6.707031 17.738281 6.429688 17.328125 6.4375 C 16.925781 6.441406 16.660156 6.71875 16.652344 7.140625 C 16.648438 7.398438 16.652344 7.652344 16.652344 7.910156 L 16.652344 12.28125 C 16.652344 12.621094 16.859375 12.917969 17.132812 12.988281 C 17.507812 13.09375 17.890625 12.867188 17.988281 12.488281 C 18.007812 12.421875 18.015625 12.355469 18.011719 12.285156 C 18.023438 11.433594 18.015625 10.582031 18.015625 9.730469 Z M 18.015625 9.730469 "/><path style=" stroke:none;fill-rule:nonzero;fill:rgb(0.392157%,50.196078%,78.039216%);fill-opacity:1;" d="M 7.582031 23.976562 C 6.097656 23.976562 4.609375 24.027344 3.125 23.972656 C 1.371094 23.902344 0.0273438 22.410156 0.0273438 20.636719 C 0.0273438 14.902344 0.0390625 9.167969 0.0273438 3.429688 C 0.0273438 1.46875 1.542969 0.0976562 3.289062 0.0507812 C 5.113281 0 6.945312 0.0390625 8.777344 0.0390625 C 8.808594 0.0390625 8.851562 0.0234375 8.867188 0.078125 C 8.855469 0.175781 8.757812 0.1875 8.699219 0.226562 C 7.625 0.863281 6.640625 1.628906 5.816406 2.574219 C 4.453125 4.132812 3.503906 5.925781 3.183594 8.007812 C 2.621094 11.6875 3.753906 14.808594 6.324219 17.414062 C 6.78125 17.882812 6.839844 18.246094 6.476562 18.871094 C 6.039062 19.625 5.371094 20.136719 4.65625 20.601562 C 4.582031 20.648438 4.503906 20.703125 4.429688 20.75 C 4.316406 20.851562 4.386719 20.898438 4.484375 20.945312 C 4.503906 20.992188 4.53125 21.035156 4.566406 21.082031 C 5.191406 21.640625 5.78125 22.242188 6.394531 22.8125 C 6.683594 23.082031 6.972656 23.363281 7.25 23.644531 C 7.363281 23.746094 7.554688 23.78125 7.582031 23.976562 Z M 7.582031 23.976562 "/><path style=" stroke:none;fill-rule:nonzero;fill:rgb(0.392157%,44.705882%,69.411765%);fill-opacity:1;" d="M 7.582031 23.976562 C 7.554688 23.785156 7.363281 23.753906 7.25 23.636719 C 6.972656 23.351562 6.683594 23.078125 6.394531 22.808594 C 5.78125 22.234375 5.191406 21.636719 4.566406 21.074219 C 4.53125 21.03125 4.503906 20.988281 4.484375 20.9375 C 5.871094 21.214844 7.222656 21.027344 8.554688 20.613281 C 9.003906 20.476562 9.453125 20.339844 9.910156 20.222656 C 10.222656 20.140625 10.546875 20.15625 10.84375 20.265625 C 14.289062 21.464844 17.691406 21.355469 21.039062 19.871094 C 22.402344 19.261719 23.644531 18.402344 24.699219 17.332031 C 24.753906 17.277344 24.792969 17.195312 24.890625 17.1875 C 24.9375 17.265625 24.910156 17.347656 24.910156 17.429688 L 24.910156 20.648438 C 24.921875 22.484375 23.464844 23.976562 21.652344 23.996094 L 21.625 23.996094 C 19.667969 24.003906 17.710938 23.996094 15.757812 23.996094 L 7.90625 23.996094 C 7.796875 23.984375 7.6875 23.976562 7.582031 23.976562 Z M 7.582031 23.976562 "/><path style=" stroke:none;fill-rule:nonzero;fill:rgb(0.392157%,50.196078%,78.039216%);fill-opacity:1;" d="M 8.429688 11.675781 C 9.25 11.675781 10.019531 11.671875 10.785156 11.675781 C 11.214844 11.679688 11.449219 11.863281 11.492188 12.207031 C 11.542969 12.644531 11.292969 12.933594 10.824219 12.941406 C 9.945312 12.949219 9.070312 12.945312 8.1875 12.945312 C 7.933594 12.945312 7.683594 12.957031 7.429688 12.941406 C 7.113281 12.921875 6.804688 12.859375 6.652344 12.527344 C 6.5 12.199219 6.609375 11.902344 6.816406 11.632812 C 7.652344 10.554688 8.492188 9.472656 9.335938 8.394531 C 9.382812 8.328125 9.433594 8.261719 9.480469 8.203125 C 9.425781 8.109375 9.351562 8.152344 9.285156 8.148438 C 8.699219 8.140625 8.109375 8.148438 7.519531 8.140625 C 7.386719 8.140625 7.25 8.125 7.117188 8.097656 C 6.808594 8.027344 6.617188 7.710938 6.691406 7.40625 C 6.738281 7.195312 6.902344 7.023438 7.109375 6.976562 C 7.238281 6.941406 7.375 6.925781 7.511719 6.925781 C 8.476562 6.921875 9.449219 6.921875 10.417969 6.925781 C 10.589844 6.921875 10.757812 6.941406 10.925781 6.988281 C 11.296875 7.113281 11.453125 7.460938 11.308594 7.820312 C 11.175781 8.136719 10.96875 8.40625 10.765625 8.675781 C 10.050781 9.59375 9.339844 10.503906 8.628906 11.410156 C 8.570312 11.484375 8.515625 11.554688 8.429688 11.675781 Z M 8.429688 11.675781 "/><path style=" stroke:none;fill-rule:nonzero;fill:rgb(0.392157%,50.196078%,78.039216%);fill-opacity:1;" d="M 14.730469 8.785156 C 14.859375 8.613281 14.996094 8.453125 15.21875 8.410156 C 15.648438 8.324219 16.050781 8.601562 16.054688 9.042969 C 16.070312 10.140625 16.066406 11.242188 16.054688 12.339844 C 16.054688 12.625 15.871094 12.878906 15.605469 12.960938 C 15.332031 13.066406 15.023438 12.984375 14.84375 12.746094 C 14.75 12.632812 14.714844 12.609375 14.582031 12.714844 C 14.089844 13.121094 13.53125 13.191406 12.925781 12.996094 C 11.960938 12.675781 11.5625 11.910156 11.453125 10.984375 C 11.339844 9.976562 11.671875 9.121094 12.5625 8.59375 C 13.300781 8.148438 14.050781 8.183594 14.730469 8.785156 Z M 12.808594 10.789062 C 12.816406 11.03125 12.894531 11.261719 13.035156 11.457031 C 13.328125 11.851562 13.886719 11.933594 14.285156 11.636719 C 14.351562 11.585938 14.410156 11.527344 14.464844 11.457031 C 14.769531 11.039062 14.769531 10.351562 14.464844 9.933594 C 14.3125 9.71875 14.074219 9.59375 13.816406 9.585938 C 13.21875 9.546875 12.800781 10.015625 12.808594 10.789062 Z M 18.496094 10.824219 C 18.453125 9.410156 19.371094 8.355469 20.671875 8.316406 C 22.058594 8.273438 23.070312 9.214844 23.113281 10.585938 C 23.15625 11.976562 22.316406 12.960938 21.015625 13.09375 C 19.597656 13.238281 18.472656 12.199219 18.496094 10.824219 Z M 19.859375 10.691406 C 19.847656 10.964844 19.929688 11.234375 20.09375 11.460938 C 20.390625 11.855469 20.949219 11.933594 21.34375 11.625 C 21.402344 11.582031 21.449219 11.527344 21.5 11.472656 C 21.816406 11.054688 21.816406 10.351562 21.503906 9.933594 C 21.351562 9.722656 21.113281 9.59375 20.859375 9.585938 C 20.273438 9.554688 19.859375 10.003906 19.859375 10.691406 Z M 18.015625 9.730469 C 18.015625 10.582031 18.023438 11.433594 18.015625 12.285156 C 18.023438 12.675781 17.71875 13 17.332031 13.011719 C 17.265625 13.011719 17.195312 13.007812 17.132812 12.988281 C 16.859375 12.917969 16.652344 12.625 16.652344 12.28125 L 16.652344 7.910156 C 16.652344 7.652344 16.648438 7.398438 16.652344 7.140625 C 16.660156 6.71875 16.925781 6.441406 17.328125 6.441406 C 17.738281 6.4375 18.015625 6.710938 18.015625 7.152344 C 18.023438 8.007812 18.015625 8.871094 18.015625 9.730469 Z M 18.015625 9.730469 "/><path style=" stroke:none;fill-rule:nonzero;fill:rgb(99.215686%,99.607843%,99.607843%);fill-opacity:1;" d="M 12.808594 10.789062 C 12.800781 10.015625 13.21875 9.546875 13.8125 9.582031 C 14.066406 9.59375 14.304688 9.71875 14.457031 9.933594 C 14.761719 10.34375 14.761719 11.039062 14.457031 11.457031 C 14.164062 11.851562 13.605469 11.933594 13.210938 11.636719 C 13.144531 11.585938 13.085938 11.527344 13.03125 11.457031 C 12.894531 11.261719 12.816406 11.03125 12.808594 10.789062 Z M 19.859375 10.691406 C 19.859375 10.011719 20.273438 9.554688 20.859375 9.585938 C 21.113281 9.59375 21.351562 9.722656 21.503906 9.933594 C 21.816406 10.351562 21.816406 11.058594 21.5 11.472656 C 21.195312 11.863281 20.628906 11.929688 20.246094 11.621094 C 20.183594 11.578125 20.136719 11.523438 20.09375 11.460938 C 19.929688 11.234375 19.851562 10.964844 19.859375 10.691406 Z M 19.859375 10.691406 "/><path style="fill:none;stroke-width:2;stroke-linecap:butt;stroke-linejoin:miter;stroke:rgb(0.392157%,50.196078%,78.039216%);stroke-opacity:1;stroke-miterlimit:10;" d="M 65.974128 0.994857 L 394.125872 0.994857 C 430.003988 0.994857 459.123501 30.129948 459.123501 66.015853 L 459.123501 369.020801 C 459.123501 404.906706 430.003988 433.970736 394.125872 433.970736 L 65.974128 433.970736 C 30.096012 433.970736 0.976499 404.906706 0.976499 369.020801 L 0.976499 66.015853 C 0.976499 30.129948 30.096012 0.994857 65.974128 0.994857 Z M 65.974128 0.994857 " transform="matrix(0.0543289,0,0,0.0549702,0.00163536,0)"/></g></svg>
